<svg xmlns="http://www.w3.org/2000/svg" data-name="Layer 3" viewBox="0 0 242.33 69.23">
    <defs>
        <style>.cls-1,.cls-2{fill:#0a472e;}.cls-2{font-size:36.15px;font-family:PlayfairDisplay-Regular, Playfair Display;}</style>
    </defs>
    <title>logo</title>
    <path class="cls-1" d="M416.35,532.2c-10,0-18.57-3.14-24.8-9.08a29.32,29.32,0,0,1-8.35-14.57,1.25,1.25,0,1,1,2.43-.61,27,27,0,0,0,7.64,13.36,30.57,30.57,0,0,0,16.13,7.82,16.8,16.8,0,0,1-6.89-7.13c-3-5.5-4.43-13-4.43-22.81a89.22,89.22,0,0,1,1-14.49c.84-5.78,2.6-10.51,5.24-14a16.7,16.7,0,0,1,4.45-4.11A32,32,0,0,0,394.44,474a29.43,29.43,0,0,0-8.57,14.43,1.25,1.25,0,0,1-2.42-.65,32,32,0,0,1,9.3-15.63c6.55-6,15.41-9.15,25.61-9.15,10.65,0,19.53,3.5,25.67,10.14,5.76,6.22,8.8,14.82,8.8,24.88,0,10.73-3.9,19.66-11.28,25.81C435.06,529.22,426.11,532.2,416.35,532.2Zm1.19-65.44a13.13,13.13,0,0,0-11.21,5.43c-2.37,3.16-4,7.5-4.76,12.88a88.31,88.31,0,0,0-1,14.11c0,9.29,1.38,16.57,4.12,21.61s6.89,7.63,12.55,7.63c4.71,0,8.34-1.47,11.09-4.5,2.29-2.52,3.9-6.26,4.79-11.13a78.59,78.59,0,0,0,1.07-13.61c0-10.26-1.18-17.89-3.62-23.33C427.85,469.73,423.58,466.76,417.54,466.76Zm7.71-.72a17.63,17.63,0,0,1,7.63,8.78c2.58,5.78,3.84,13.74,3.84,24.36a81.53,81.53,0,0,1-1.11,14.06c-1,5.34-2.8,9.5-5.4,12.36a15.78,15.78,0,0,1-3.34,2.8,33.23,33.23,0,0,0,13.07-6.51c6.8-5.66,10.39-13.92,10.39-23.89,0-9.42-2.82-17.43-8.14-23.18A29.21,29.21,0,0,0,425.25,466Z" transform="translate(-378.69 -462.98)"></path>
    <path class="cls-1" d="M400,512.23a21.14,21.14,0,0,1-21.24-20.68l0-1.29h1.44a21.15,21.15,0,0,1,21.24,20.69l0,1.29H400ZM381.31,492.8a18.63,18.63,0,0,0,17.47,16.89A18.62,18.62,0,0,0,381.31,492.8Z" transform="translate(-378.69 -462.98)"></path>
    <path class="cls-1" d="M399.8,501.73h-1.44l.09-1.29a13,13,0,0,1,13.1-12.76H413l-.1,1.29A13,13,0,0,1,399.8,501.73Zm10.47-11.47a10.51,10.51,0,0,0-9.19,8.89A10.54,10.54,0,0,0,410.27,490.26Z" transform="translate(-378.69 -462.98)"></path>
    <rect class="cls-1" x="392.23" y="495.36" width="2.51" height="18.52" transform="translate(-620.26 -36.94) rotate(-45)"></rect>
    <text class="cls-2" transform="translate(91.57 46.47)">Orgifarm</text>
</svg>