<?xml version="1.0" encoding="utf-8"?>
<!-- Generator: Adobe Illustrator 26.0.3, SVG Export Plug-In . SVG Version: 6.00 Build 0)  -->
<svg version="1.1" id="Layer_1" xmlns="http://www.w3.org/2000/svg" xmlns:xlink="http://www.w3.org/1999/xlink" x="0px" y="0px"
	 viewBox="0 0 500 500" style="enable-background:new 0 0 500 500;" xml:space="preserve">
<style type="text/css">
	.st0{fill:url(#SVGID_1_);}
	.st1{fill:url(#SVGID_00000075857172907678572830000013253532543959600823_);}
	.st2{fill:url(#SVGID_00000145038730520704211840000000384623125499322555_);}
	.st3{fill:url(#SVGID_00000062911204540945623240000014988028045186777269_);}
	.st4{fill:url(#SVGID_00000141437476943635223970000004297199510680660628_);}
	.st5{fill:url(#SVGID_00000053528592687806667620000011291891426869777544_);}
	.st6{fill:url(#SVGID_00000014600207668112274450000013455458402570341273_);}
</style>
<g id="OBJECTS">
	
		<linearGradient id="SVGID_1_" gradientUnits="userSpaceOnUse" x1="-25.1388" y1="431.8578" x2="352.6463" y2="54.0727" gradientTransform="matrix(0.74 0.67 0.67 -0.74 -32.9862 376.5585)">
		<stop  offset="0" style="stop-color:#FFE205"/>
		<stop  offset="1" style="stop-color:#009105"/>
	</linearGradient>
	<path class="st0" d="M288.4,99.8c77.1-8.8,118.5,64.4,127.8,146.5s-14.9,152.2-91.9,160.9S90.1,360,80.9,277.9
		S211.3,108.5,288.4,99.8z"/>
	
		<linearGradient id="SVGID_00000130642646739409460980000005077964740513065362_" gradientUnits="userSpaceOnUse" x1="89.3243" y1="396.1282" x2="478.6783" y2="6.7961" gradientTransform="matrix(0.9957 9.237059e-02 9.237059e-02 -0.9957 -27.7514 487.133)">
		<stop  offset="0" style="stop-color:#C7F533"/>
		<stop  offset="1" style="stop-color:#15831E"/>
	</linearGradient>
	<path style="fill:url(#SVGID_00000130642646739409460980000005077964740513065362_);" d="M178.9,113.8
		c56.6-53.1,127.8-8.3,184.4,52s117.5,133.9,29.2,181.3c-68.3,36.7-211.7,113-263.7,48.8C84,340.5,122.3,166.8,178.9,113.8z"/>
	
		<linearGradient id="SVGID_00000015330685282317846560000001149087963535778738_" gradientUnits="userSpaceOnUse" x1="98.6054" y1="405.4313" x2="487.9594" y2="16.0773" gradientTransform="matrix(0.9957 9.237059e-02 9.237059e-02 -0.9957 -27.7514 487.133)">
		<stop  offset="0" style="stop-color:#C7F533"/>
		<stop  offset="1" style="stop-color:#15831E"/>
	</linearGradient>
	<path style="fill:url(#SVGID_00000015330685282317846560000001149087963535778738_);" d="M416.1,246.3c-0.8-7.1-1.9-14.2-3.2-21.2
		c-13.9-20.3-32-40.5-49.7-59.3c-25.6-27.3-54.2-51.5-83.3-64.7c-40.9,7.1-95.8,33.4-137.7,68.2c-22,48.2-35.5,112-32.9,162.3
		c37.1,37.5,103.2,64.2,159,73.3c46.3-16.1,92.9-41,123.9-57.6c6.1-3.2,12-7,17.5-11.2C418.2,310.1,419.9,279.2,416.1,246.3z"/>
	
		<linearGradient id="SVGID_00000007417455492905256980000007256761024020634790_" gradientUnits="userSpaceOnUse" x1="8.1083" y1="332.2777" x2="8.1083" y2="69.7629" gradientTransform="matrix(9.075529e-03 -1 -1 -9.075529e-03 430.8087 158.3406)">
		<stop  offset="0" style="stop-color:#C7F533"/>
		<stop  offset="1" style="stop-color:#15831E"/>
	</linearGradient>
	<path style="fill:url(#SVGID_00000007417455492905256980000007256761024020634790_);" d="M123,123.6c11.8,0.1,21.3,9.8,21.2,21.6
		c0,0,0,0,0,0c0,11.8-9.1,26.3-21,26.2s-21.9-14.8-21.8-26.6C101.6,132.9,111.2,123.5,123,123.6z"/>
	
		<linearGradient id="SVGID_00000156550401955646849080000008388424375654307216_" gradientUnits="userSpaceOnUse" x1="118.237" y1="234.8047" x2="372.4434" y2="234.8047" gradientTransform="matrix(1 0 0 -1 0 499.8898)">
		<stop  offset="0" style="stop-color:#FFFFFF"/>
		<stop  offset="1" style="stop-color:#EBEBEB"/>
	</linearGradient>
	<path style="fill:url(#SVGID_00000156550401955646849080000008388424375654307216_);" d="M352.3,298.7h-10.6
		c4.5-4.8,7.7-10.8,9.1-17.3l19.1-83c0.7-3.2-1.3-6.4-4.5-7.1c-3.2-0.7-6.4,1.3-7.1,4.5l0,0l-2.6,11.2c-0.3,0-0.5,0-0.8,0H190.3
		l-2.6-11.1c-0.6-2.7-3-4.6-5.8-4.6h-57.7c-3.3,0-6,2.7-6,6c0,3.3,2.7,6,6,6h52.9l18,78.4c3.9,17.1,19.2,29.1,36.7,29h120.5
		c4.6,0,8.2,3.7,8.2,8.2c0,4.6-3.7,8.2-8.2,8.2H186.1c-3.3-0.2-6.1,2.3-6.3,5.6c-0.2,3.3,2.3,6.1,5.6,6.3c0.2,0,0.5,0,0.7,0h166.2
		c11.1,0,20.2-9.1,20.1-20.2C372.4,307.7,363.4,298.7,352.3,298.7L352.3,298.7z M278,298.7v-18.1h22.8l-3.2,18.1H278z M248.1,298.7
		l-3.2-18.1H266v18.1H248.1z M204.4,268.7l-4.4-19h27.5l3.3,19H204.4z M239.5,249.8H266v19h-23.1L239.5,249.8z M266,237.8h-28.6
		l-3.3-19h31.9L266,237.8z M277.9,218.9h33.6l-3.3,19H278L277.9,218.9z M277.9,268.7v-19h28.2l-3.3,19L277.9,268.7z M318.2,249.8
		h27.7l-4.4,19H315L318.2,249.8z M348.6,237.9c-0.3,0-0.5,0-0.8,0h-27.5l3.3-19H353L348.6,237.9z M222,218.8l3.3,19.1h-27.1
		c-0.3,0-0.6,0-0.9,0l-4.4-19.1H222z M207.3,280.5h25.6l3.2,18.1h-4.2c-11.2,0-21.2-7.3-24.5-18L207.3,280.5z M309.7,298.6l3.2-18.1
		h25.8c-3.3,10.8-13.2,18.1-24.5,18.1H309.7z"/>
	
		<linearGradient id="SVGID_00000033345226621968308010000001915269941597071777_" gradientUnits="userSpaceOnUse" x1="227.137" y1="151.9649" x2="246.9914" y2="132.1104" gradientTransform="matrix(1 0 0 -1 0 499.8898)">
		<stop  offset="0" style="stop-color:#FFFFFF"/>
		<stop  offset="1" style="stop-color:#EBEBEB"/>
	</linearGradient>
	<path style="fill:url(#SVGID_00000033345226621968308010000001915269941597071777_);" d="M247.5,356.9c0.1,6.2-4.8,11.3-11,11.5
		c-6.2,0.1-11.3-4.8-11.5-11c-0.1-6.2,4.8-11.3,11-11.5c0.1,0,0.2,0,0.3,0C242.5,345.9,247.4,350.8,247.5,356.9z"/>
	
		<linearGradient id="SVGID_00000035525440175728771230000016172217982350029976_" gradientUnits="userSpaceOnUse" x1="310.3749" y1="152.061" x2="330.2513" y2="132.2065" gradientTransform="matrix(1 0 0 -1 0 499.8898)">
		<stop  offset="0" style="stop-color:#FFFFFF"/>
		<stop  offset="1" style="stop-color:#EBEBEB"/>
	</linearGradient>
	<path style="fill:url(#SVGID_00000035525440175728771230000016172217982350029976_);" d="M330.7,356.9c0,6.2-5,11.2-11.2,11.3
		c-6.2,0-11.2-5-11.3-11.2c0-6.2,5-11.2,11.2-11.3c0,0,0,0,0,0C325.7,345.7,330.7,350.7,330.7,356.9z"/>
</g>
</svg>
